<?xml version="1.0" encoding="UTF-8"?>
<svg width="120" height="120" viewBox="0 0 120 120" fill="none" xmlns="http://www.w3.org/2000/svg">
  <circle cx="60" cy="60" r="50" fill="#F5F5F5"/>
  <path d="M40 50C40 45.5817 43.5817 42 48 42H72C76.4183 42 80 45.5817 80 50V70C80 74.4183 76.4183 78 72 78H48C43.5817 78 40 74.4183 40 70V50Z" fill="#E0E0E0"/>
  <circle cx="60" cy="60" r="20" fill="#D0D0D0"/>
  <path d="M60 50C55.5817 50 52 53.5817 52 58C52 62.4183 55.5817 66 60 66C64.4183 66 68 62.4183 68 58C68 53.5817 64.4183 50 60 50Z" fill="#B0B0B0"/>
</svg> 