<?xml version="1.0" encoding="UTF-8"?>
<svg width="120" height="120" viewBox="0 0 120 120" fill="none" xmlns="http://www.w3.org/2000/svg">
  <path d="M60 20C40.1177 20 24 36.1177 24 56C24 75.8823 40.1177 92 60 92C79.8823 92 96 75.8823 96 56C96 36.1177 79.8823 20 60 20ZM60 24C77.6731 24 92 38.3269 92 56C92 73.6731 77.6731 88 60 88C42.3269 88 28 73.6731 28 56C28 38.3269 42.3269 24 60 24Z" fill="#E0E0E0"/>
  <path d="M60 32C46.7452 32 36 42.7452 36 56C36 69.2548 46.7452 80 60 80C73.2548 80 84 69.2548 84 56C84 42.7452 73.2548 32 60 32ZM60 36C71.0457 36 80 44.9543 80 56C80 67.0457 71.0457 76 60 76C48.9543 76 40 67.0457 40 56C40 44.9543 48.9543 36 60 36Z" fill="#E0E0E0"/>
  <path d="M60 44C53.3726 44 48 49.3726 48 56C48 62.6274 53.3726 68 60 68C66.6274 68 72 62.6274 72 56C72 49.3726 66.6274 44 60 44ZM60 48C64.4183 48 68 51.5817 68 56C68 60.4183 64.4183 64 60 64C55.5817 64 52 60.4183 52 56C52 51.5817 55.5817 48 60 48Z" fill="#E0E0E0"/>
  <path d="M60 56C58.3431 56 57 57.3431 57 59V65C57 66.6569 58.3431 68 60 68C61.6569 68 63 66.6569 63 65V59C63 57.3431 61.6569 56 60 56Z" fill="#E0E0E0"/>
  <path d="M60 52C61.1046 52 62 51.1046 62 50C62 48.8954 61.1046 48 60 48C58.8954 48 58 48.8954 58 50C58 51.1046 58.8954 52 60 52Z" fill="#E0E0E0"/>
  <path d="M20 100C20 95.5817 23.5817 92 28 92H92C96.4183 92 100 95.5817 100 100C100 104.418 96.4183 108 92 108H28C23.5817 108 20 104.418 20 100Z" fill="#E0E0E0"/>
</svg> 